# xmcd
#
# Track frame offsets: 
#        182
#        12277
#        26610
#        38522
#        52545
#        69235
#        82862
#        102170
#        119957
#        129035
#        146462
#        163402
#        174115
#        191180
#        203455
#        215632
#        228150
#        244235
#        264810
#        275622
#        293192
#
# Disc length: 4077 seconds
#
# Revision: 10
# Processed by: cddbd v1.5.2PL0 Copyright (c) Steve Scherf et al.
# Submitted via: ExactAudioCopyFreeDBPlugin 1.0
#
DISCID=190feb15
DTITLE=Various Artist - Les Plus Grands Moments Country - Disque 1
DYEAR=1989
DGENRE=Country
TTITLE0=Tammy Wynette - Stand by Your Man
TTITLE1=Charly Mc Clain - Radio Heart
TTITLE2=Charlie Rich - The most Beautiful Girl
TTITLE3=Lacy J. Dalton - 16th Avenue
TTITLE4=Johnny Cash - The City of New Orleans
TTITLE5=W. Jennings, W. Nelson, J. Cash, K. Kristofferson - Highwayman
TTITLE6=Dolly Parton - The River Unbroken
TTITLE7=Barbara Fairchild - Mississippi
TTITLE8=Frankie Laine - Rawhide
TTITLE9=Albert Hammond - It never rains in Southern California
TTITLE10=Crystal Gaye - Too many Lovers
TTITLE11=Tanya Tucker - Would You Lay with Me
TTITLE12=Willie Nelson and Ray Charles - Seven Spanish Angel
TTITLE13=Dan Fogelgerg - Mountain Pass
TTITLE14=Bobby Lee Springfield - Hank Drank
TTITLE15=Annie Rattlesnake - Somwhere South of Macon
TTITLE16=Exile - Kiss Your all Over
TTITLE17=Mary Chapin Carpenter - A Lot like Me
TTITLE18=Roy Orbison - Only the Lonely
TTITLE19=Dolly Paton - Red Hot Screaming Love
TTITLE20=Sweethearts of the Rodeo - Chains of Gold
EXTD=ID3G:   2
EXTT0=
EXTT1=
EXTT2=
EXTT3=
EXTT4=
EXTT5=
EXTT6=
EXTT7=
EXTT8=
EXTT9=
EXTT10=
EXTT11=
EXTT12=
EXTT13=
EXTT14=
EXTT15=
EXTT16=
EXTT17=
EXTT18=
EXTT19=
EXTT20=
PLAYORDER=
